<svg xmlns="http://www.w3.org/2000/svg" width="85.125" height="85.125" viewBox="0 0 85.125 85.125">
  <g id="MTA" transform="translate(-298.893 -298.893)">
    <g id="Layer_2" transform="translate(299.6 299.6)">
      <g id="Group_7" data-name="Group 7" transform="translate(0 0)">
        <g id="Group_2" data-name="Group 2" transform="translate(12.257 12.257)">
          <path id="Path_3" data-name="Path 3" d="M490.7,490.7H431.5V431.5h59.2Zm-58.731-.465h58.266V431.965H431.965Z" transform="translate(-431.5 -431.5)" fill="#d4af37" stroke="#d4af37" stroke-width="1"/>
        </g>
        <g id="Group_3" data-name="Group 3">
          <path id="Path_4" data-name="Path 4" d="M341.455,383.31,299.6,341.455l.167-.167L341.455,299.6l.167.167,41.688,41.688Zm-41.2-41.855,41.2,41.2,41.2-41.2-41.2-41.2Z" transform="translate(-299.6 -299.6)" fill="#d4af37" stroke="#d4af37" stroke-width="1"/>
        </g>
        <g id="Group_4" data-name="Group 4" transform="translate(4.33 4.34)">
          <path id="Path_5" data-name="Path 5" d="M399.262,421.34H368.187l-.065-.065L346.2,399.353V368.278l.065-.065L368.178,346.3h31.085l21.978,21.978v31.085Zm-30.89-.465h30.694l21.708-21.708v-30.7l-21.7-21.708h-30.7l-21.708,21.708v30.694Z" transform="translate(-346.2 -346.3)" fill="#d4af37" stroke="#d4af37" stroke-width="1"/>
        </g>
        <g id="Group_5" data-name="Group 5" transform="translate(8.466 8.475)">
          <path id="Path_6" data-name="Path 6" d="M437.917,457.569H410.262l-.065-.065-19.5-19.5V410.352l.065-.065L410.252,390.8h27.656l19.562,19.562v27.656Zm-27.47-.465h27.275L457,437.822V410.538l-19.273-19.283H410.448l-19.283,19.283v27.275Z" transform="translate(-390.7 -390.8)" fill="#d4af37" stroke="#d4af37" stroke-width="1"/>
        </g>
      </g>
    </g>
  </g>
</svg>
